<?xml version="1.0" encoding="utf-8"?>
<!-- Generator: Adobe Illustrator 17.0.0, SVG Export Plug-In . SVG Version: 6.00 Build 0)  -->
<!DOCTYPE svg PUBLIC "-//W3C//DTD SVG 1.1//EN" "http://www.w3.org/Graphics/SVG/1.1/DTD/svg11.dtd">
<svg version="1.1" id="Layer_1" xmlns="http://www.w3.org/2000/svg" xmlns:xlink="http://www.w3.org/1999/xlink" x="0px" y="0px"
	 width="170px" height="170px" viewBox="0 0 170 170" enable-background="new 0 0 170 170" xml:space="preserve">
<g>
	<g>
		<g>
			<g>
				<g>
					<g>
						<defs>
							<rect id="SVGID_1_" y="0" width="170.657" height="170.657"/>
						</defs>
						<clipPath id="SVGID_2_">
							<use xlink:href="#SVGID_1_"  overflow="visible"/>
						</clipPath>
						<g clip-path="url(#SVGID_2_)">
							<g>
								<g display="none" opacity="0.5" enable-background="new    ">
									<g display="inline">
										<g>
											<defs>
												<rect id="SVGID_3_" y="0" width="170.657" height="170.657"/>
											</defs>
											<clipPath id="SVGID_4_">
												<use xlink:href="#SVGID_3_"  overflow="visible"/>
											</clipPath>
											<path clip-path="url(#SVGID_4_)" fill="#010101" d="M110.226,99.562h-5.676l-2.121-2.121
												c7.11-7.826,11.381-18.49,11.381-29.871c0-25.6-20.612-46.212-46.212-46.212S21.329,41.94,21.329,67.54
												s20.612,46.212,46.212,46.212c11.381,0,22.045-4.271,29.871-11.381l2.121,2.121v5.676l35.548,35.548l10.664-10.664
												L110.226,99.562z M67.54,99.562c-17.774,0-31.993-14.219-31.993-31.993S49.767,35.576,67.54,35.576
												s31.993,14.219,31.993,31.993S85.314,99.562,67.54,99.562"/>
										</g>
									</g>
								</g>
								<g>
									<g>
										<defs>
											<rect id="SVGID_5_" y="0" width="170.657" height="170.657"/>
										</defs>
										<clipPath id="SVGID_6_">
											<use xlink:href="#SVGID_5_"  overflow="visible"/>
										</clipPath>
										<g clip-path="url(#SVGID_6_)">
											<g>
												<g>
													<g>
														<g>
															<g>
																<defs>
																	<rect id="SVGID_7_" y="0" width="170.657" height="170.657"/>
																</defs>
																<clipPath id="SVGID_8_">
																	<use xlink:href="#SVGID_7_"  overflow="visible"/>
																</clipPath>
																<g clip-path="url(#SVGID_8_)">
																	<g>
																		<g enable-background="new    ">
																			<g>
																				<g>
																					<defs>
																						<rect id="SVGID_9_" y="0" width="170.657" height="170.657"/>
																					</defs>
																					<clipPath id="SVGID_10_">
																						<use xlink:href="#SVGID_9_"  overflow="visible"/>
																					</clipPath>
																					<polygon clip-path="url(#SVGID_10_)" points="149.329,78.205 48.452,78.205 76.329,50.327 66.33,40.329 
																						31.331,75.33 31.327,75.326 21.329,85.325 21.332,85.329 21.329,85.332 31.327,95.331 31.331,95.327 
																						66.33,130.329 76.329,120.33 48.424,92.424 149.329,92.424 																					"/>
																				</g>
																			</g>
																		</g>
																	</g>
																</g>
															</g>
														</g>
													</g>
												</g>
											</g>
										</g>
									</g>
								</g>
							</g>
						</g>
					</g>
				</g>
			</g>
		</g>
	</g>
</g>
</svg>
