<?xml version="1.0" encoding="utf-8"?>
<!-- Generator: Adobe Illustrator 18.0.0, SVG Export Plug-In . SVG Version: 6.00 Build 0)  -->
<!DOCTYPE svg PUBLIC "-//W3C//DTD SVG 1.1//EN" "http://www.w3.org/Graphics/SVG/1.1/DTD/svg11.dtd">
<svg version="1.1" id="Layer_1" xmlns="http://www.w3.org/2000/svg" xmlns:xlink="http://www.w3.org/1999/xlink" x="0px" y="0px"
	 viewBox="74.4 197.9 446.5 446" enable-background="new 74.4 197.9 446.5 446" xml:space="preserve">
<g>
	<g>
		<g>
			<g>
				<g>
					<defs>
						<rect id="SVGID_1_" x="0" y="123.3" width="595.3" height="595.3"/>
					</defs>
					<clipPath id="SVGID_2_">
						<use xlink:href="#SVGID_1_"  overflow="visible"/>
					</clipPath>
					<g clip-path="url(#SVGID_2_)">
						<g display="none" opacity="0.5" enable-background="new    ">
							<g display="inline">
								<g>
									<defs>
										<rect id="SVGID_3_" x="0" y="123.3" width="595.3" height="595.3"/>
									</defs>
									<clipPath id="SVGID_4_">
										<use xlink:href="#SVGID_3_"  overflow="visible"/>
									</clipPath>
									<path clip-path="url(#SVGID_4_)" fill="#010101" d="M384.5,470.6h-19.8l-7.4-7.4c24.8-27.3,39.7-64.5,39.7-104.2
										c0-89.3-71.9-161.2-161.2-161.2S74.4,269.6,74.4,358.9s71.9,161.2,161.2,161.2c39.7,0,76.9-14.9,104.2-39.7l7.4,7.4v19.8
										l124,124l37.2-37.2L384.5,470.6z M235.6,470.6c-62,0-111.6-49.6-111.6-111.6s49.6-111.6,111.6-111.6
										s111.6,49.6,111.6,111.6S297.6,470.6,235.6,470.6"/>
								</g>
							</g>
						</g>
						<g>
							<defs>
								<rect id="SVGID_5_" x="0" y="123.3" width="595.3" height="595.3"/>
							</defs>
							<clipPath id="SVGID_6_">
								<use xlink:href="#SVGID_5_"  overflow="visible"/>
							</clipPath>
							<g clip-path="url(#SVGID_6_)">
								<g>
									<g>
										<g>
											<g>
												<defs>
													<rect id="SVGID_7_" x="0" y="123.3" width="595.3" height="595.3"/>
												</defs>
												<clipPath id="SVGID_8_">
													<use xlink:href="#SVGID_7_"  overflow="visible"/>
												</clipPath>
												<g clip-path="url(#SVGID_8_)">
													<g enable-background="new    ">
														<g>
															<g>
																<defs>
																	<rect id="SVGID_9_" x="0" y="123.3" width="595.3" height="595.3"/>
																</defs>
																<clipPath id="SVGID_10_">
																	<use xlink:href="#SVGID_9_"  overflow="visible"/>
																</clipPath>
																<path clip-path="url(#SVGID_10_)" fill="#FFFFFF" d="M74.4,569.8h446.5v-49.6H74.4V569.8z M74.4,445.7h446.5v-49.6
																	H74.4V445.7z M74.4,321.7h446.5v-49.6H74.4V321.7z"/>
															</g>
														</g>
													</g>
												</g>
											</g>
										</g>
									</g>
								</g>
							</g>
						</g>
					</g>
				</g>
			</g>
		</g>
	</g>
</g>
</svg>
