<?xml version="1.0" encoding="utf-8"?>
<!-- Generator: Adobe Illustrator 19.0.0, SVG Export Plug-In . SVG Version: 6.00 Build 0)  -->
<svg version="1.1" id="Layer_1" xmlns="http://www.w3.org/2000/svg" xmlns:xlink="http://www.w3.org/1999/xlink" x="0px" y="0px"
	 viewBox="0 0 30 30" style="enable-background:new 0 0 30 30;" xml:space="preserve">
<style type="text/css">
	.st0{fill:#FE2746;}
	.st1{fill:#FF7623;}
	.st2{fill:#FFC400;}
	.st3{fill:#00BCD4;}
	.st4{fill:#80C06A;}
</style>
<g id="XMLID_14_">
	<path id="XMLID_15_" class="st0" d="M25.1,0H4.9C2.2,0,0,2.2,0,4.9V6h30V4.9C30,2.2,27.8,0,25.1,0z"/>
	<polygon id="XMLID_23_" class="st1" points="0,6 0,12 30,12 30,6 30,6 0,6 	"/>
	<polygon id="XMLID_24_" class="st2" points="0,11.9 0,12 30,12 30,11.9 30,12 0,12 	"/>
	<path id="XMLID_25_" class="st3" d="M0,25.1C0,27.5,1.7,29,4,30H26c2.3-1,4-2.5,4-4.9V24H0V25.1z"/>
	<polygon id="XMLID_26_" class="st4" points="0,23.8 0,24 30,24 30,23.8 30,18 0,18 	"/>
	<polygon id="XMLID_27_" class="st2" points="0,17.8 0,17.9 0,18 30,18 30,17.9 30,17.8 30,12 0,12 	"/>
</g>
</svg>
