<?xml version="1.0" encoding="utf-8"?>
<!-- Generator: Adobe Illustrator 19.0.0, SVG Export Plug-In . SVG Version: 6.00 Build 0)  -->
<svg version="1.1" id="Layer_1" xmlns="http://www.w3.org/2000/svg" xmlns:xlink="http://www.w3.org/1999/xlink" x="0px" y="0px"
	 viewBox="0 0 72 72" style="enable-background:new 0 0 72 72;" xml:space="preserve">
<style type="text/css">
	.st0{opacity:0.4;}
	.st1{fill:none;}
</style>
<g id="XMLID_1146_">
	<g id="XMLID_1140_">
		<path id="XMLID_1327_" d="M28.881,44.345c0.896,0.679,1.953,1.188,3.173,1.528c1.219,0.339,2.534,0.509,3.943,0.509
			c1.347,0,2.63-0.17,3.85-0.509c1.219-0.34,2.289-0.849,3.21-1.528s1.616-1.531,2.163-2.555C45.765,40.765,46,39.568,46,38.198V21
			h-4v17.198c0,0.947,0.047,1.768-0.257,2.464s-0.637,1.275-1.196,1.737c-0.559,0.462-1.182,0.805-1.97,1.027
			c-0.788,0.223-1.639,0.334-2.605,0.334c-0.952,0-1.807-0.111-2.588-0.334s-1.445-0.565-2.004-1.027
			c-0.56-0.462-0.798-1.041-1.11-1.737C29.96,39.966,30,39.145,30,38.198V21h-4v17.198c0,1.37,0.255,2.567,0.77,3.591
			C27.283,42.814,27.985,43.665,28.881,44.345z"/>
		<rect id="XMLID_1332_" x="23" y="47" width="26" height="2"/>
	</g>
	<g id="XMLID_1568_" class="st0">
		<rect id="XMLID_14_" class="st1" width="72" height="72"/>
	</g>
</g>
</svg>
