<?xml version="1.0" encoding="utf-8"?>
<!-- Generator: Adobe Illustrator 19.0.0, SVG Export Plug-In . SVG Version: 6.00 Build 0)  -->
<svg version="1.1" id="Layer_1" xmlns="http://www.w3.org/2000/svg" xmlns:xlink="http://www.w3.org/1999/xlink" x="0px" y="0px"
	 viewBox="0 0 72 72" style="enable-background:new 0 0 72 72;" xml:space="preserve">
<style type="text/css">
	.st0{opacity:0.4;}
	.st1{fill:none;}
</style>
<g id="XMLID_1420_">
	<g id="XMLID_1531_" class="st0">
		<rect id="XMLID_14_" class="st1" width="72" height="72"/>
	</g>
	<g id="XMLID_961_">
		<path id="XMLID_1139_" d="M33.436,43.417c0.185,0.076,0.378,0.112,0.57,0.112c0.39,0,0.773-0.152,1.061-0.439l6.006-6.006
			c0.586-0.585,0.586-1.536,0-2.121l-6.075-6.075c-0.43-0.431-1.08-0.556-1.639-0.324c-0.562,0.234-0.926,0.785-0.922,1.393
			l0.069,12.081C32.51,42.643,32.876,43.187,33.436,43.417z M37.891,36.023l-2.405,2.405l-0.028-4.838L37.891,36.023z"/>
		<path id="XMLID_1335_" d="M17,22v27h38V22H17z M52,46H20V25h32V46z"/>
	</g>
</g>
</svg>
