<?xml version="1.0" encoding="utf-8"?>
<!-- Generator: Adobe Illustrator 19.0.0, SVG Export Plug-In . SVG Version: 6.00 Build 0)  -->
<svg version="1.1" id="Layer_1" xmlns="http://www.w3.org/2000/svg" xmlns:xlink="http://www.w3.org/1999/xlink" x="0px" y="0px"
	 viewBox="0 0 72 72" style="enable-background:new 0 0 72 72;" xml:space="preserve">
<style type="text/css">
	.st0{opacity:0.4;}
	.st1{fill:none;}
</style>
<g id="XMLID_1418_">
	<g id="XMLID_1527_" class="st0">
		<rect id="XMLID_14_" class="st1" width="72" height="72"/>
	</g>
	<path id="XMLID_1525_" d="M42.399,32.911l-3.636,3.612l-3.135-3.156l3.636-3.612L27.795,18.21l-9.298,9.237l11.469,11.545
		l3.534-3.511l3.135,3.156l-3.534,3.511L44.57,53.694l9.298-9.237L42.399,32.911z M29.979,34.75l-7.24-7.288l5.042-5.009l7.24,7.288
		l-1.507,1.497l-4.199-4.227l-2.129,2.114l4.199,4.227L29.979,34.75z M37.344,42.163l1.406-1.396l3.237,3.258l2.129-2.114
		l-3.237-3.259l1.508-1.498l7.24,7.288l-5.042,5.009L37.344,42.163z"/>
</g>
</svg>
