<?xml version="1.0" encoding="utf-8"?>
<!-- Generator: Adobe Illustrator 19.0.0, SVG Export Plug-In . SVG Version: 6.00 Build 0)  -->
<svg version="1.1" id="Layer_1" xmlns="http://www.w3.org/2000/svg" xmlns:xlink="http://www.w3.org/1999/xlink" x="0px" y="0px"
	 viewBox="0 0 72 72" style="enable-background:new 0 0 72 72;" xml:space="preserve">
<style type="text/css">
	.st0{opacity:0.4;}
	.st1{fill:none;}
</style>
<g id="XMLID_1142_">
	<path id="XMLID_1341_" d="M46.631,38.774c-0.171-0.638-0.442-1.229-0.815-1.772c-0.372-0.543-0.846-1.02-1.421-1.431
		s-1.267-0.717-2.075-0.919c0.683-0.265,1.27-0.603,1.763-1.014c0.492-0.41,0.9-0.868,1.222-1.374
		c0.322-0.505,0.562-1.048,0.721-1.629c0.157-0.581,0.236-1.188,0.236-1.819c0-1.289-0.23-2.407-0.691-3.354
		c-0.461-0.948-1.131-1.734-2.009-2.359s-1.949-1.217-3.212-1.52C39.085,21.279,37.651,21,36.047,21H26v28h10.938
		c3.184,0,5.638-0.759,7.362-2.124c1.725-1.365,2.587-3.424,2.587-6.103C46.887,40.104,46.801,39.412,46.631,38.774z M32,26h4.047
		c1.566,0,2.713,0.204,3.439,0.754c0.727,0.549,1.09,1.415,1.09,2.665c0,1.087-0.354,1.999-1.062,2.587
		C38.808,32.593,37.727,33,36.274,33H32V26z M40.945,42.109c-0.17,0.436-0.433,0.815-0.786,1.137
		c-0.354,0.322-0.796,0.435-1.326,0.618C38.302,44.048,37.67,44,36.938,44H32v-7h5.146c0.72,0,1.339,0.004,1.856,0.181
		c0.519,0.177,0.938,0.39,1.261,0.725s0.559,0.718,0.71,1.192c0.152,0.474,0.228,0.997,0.228,1.591
		C41.201,41.207,41.116,41.673,40.945,42.109z"/>
	<g id="XMLID_1574_" class="st0">
		<rect id="XMLID_14_" class="st1" width="72" height="72"/>
	</g>
</g>
</svg>
